<?xml version="1.0" encoding="UTF-8" standalone="no" ?>
<!DOCTYPE svg PUBLIC "-//W3C//DTD SVG 1.1//EN" "http://www.w3.org/Graphics/SVG/1.1/DTD/svg11.dtd">
<svg xmlns="http://www.w3.org/2000/svg" xmlns:xlink="http://www.w3.org/1999/xlink" version="1.1" width="640" height="480" viewBox="0 0 640 480" xml:space="preserve">
<desc>Created with Fabric.js 3.6.6</desc>
<defs>
</defs>
<g transform="matrix(0.06 0 0 0.06 342.63 249.6)"  >
<g style=""   >
		<g transform="matrix(3.12 0 0 3.12 330.27 -10.67)"  >
<path style="stroke: none; stroke-width: 1; stroke-dasharray: none; stroke-linecap: butt; stroke-dashoffset: 0; stroke-linejoin: miter; stroke-miterlimit: 4; fill: rgb(0,0,0); fill-rule: nonzero; opacity: 1;"  transform=" translate(-505.16, -46.12)" d="M 248.04 41.78 h -14.42 v 27.79 c 0 7.41 4.89 7.29 14.42 6.83 v 11.23 c -19.3 2.32 -26.98 -3.01 -26.98 -18.06 V 41.78 h -10.7 V 29.73 h 10.7 V 14.18 l 12.56 -3.7 v 19.25 h 14.42 z m 54.98 -12.05 h 12.56 v 57.9 h -12.56 v -8.34 c -4.42 6.14 -11.29 9.85 -20.36 9.85 c -15.81 0 -28.95 -13.32 -28.95 -30.46 c 0 -17.25 13.14 -30.45 28.95 -30.45 c 9.07 0 15.94 3.7 20.36 9.72 z m -18.38 47.48 c 10.47 0 18.38 -7.76 18.38 -18.53 s -7.91 -18.53 -18.38 -18.53 s -18.37 7.76 -18.37 18.53 s 7.9 18.53 18.37 18.53 z m 51.87 -56.16 c -4.42 0 -8.03 -3.71 -8.03 -7.99 c 0.01 -1.05 0.22 -2.09 0.62 -3.06 a 7.997 7.997 0 0 1 4.34 -4.32 c 0.97 -0.4 2.02 -0.61 3.07 -0.61 s 2.09 0.21 3.07 0.61 c 0.97 0.4 1.85 0.99 2.6 1.73 c 0.74 0.75 1.33 1.63 1.74 2.59 c 0.4 0.97 0.61 2.01 0.61 3.06 c 0 4.28 -3.6 7.99 -8.02 7.99 z m -6.28 66.58 v -57.9 h 12.56 v 57.9 z m 27.1 0 V 3.1 h 12.56 v 84.53 z m 94.08 -57.9 h 13.26 l -18.26 57.9 h -12.33 l -12.09 -39.02 l -12.21 39.02 h -12.33 l -18.26 -57.9 h 13.26 l 11.28 39.95 l 12.21 -39.95 h 11.98 l 12.09 39.95 z m 28.84 -8.68 c -4.42 0 -8.02 -3.71 -8.02 -7.99 c 0 -1.05 0.21 -2.09 0.61 -3.06 c 0.41 -0.96 1 -1.84 1.74 -2.59 c 0.75 -0.74 1.63 -1.33 2.6 -1.73 c 0.98 -0.4 2.02 -0.61 3.07 -0.61 a 8.044 8.044 0 0 1 5.67 2.34 c 0.75 0.75 1.34 1.63 1.74 2.59 c 0.41 0.97 0.62 2.01 0.62 3.06 c 0 4.28 -3.61 7.99 -8.03 7.99 z m -6.28 66.58 v -57.9 h 12.56 v 57.9 z m 80.02 -35.55 v 35.55 h -12.56 V 53.36 c 0 -8.81 -5.12 -13.44 -13.03 -13.44 c -8.26 0 -14.77 4.87 -14.77 16.68 v 31.03 h -12.56 v -57.9 h 12.56 v 7.41 c 3.84 -6.02 10.12 -8.91 18.03 -8.91 c 13.02 0 22.33 8.8 22.33 23.85 z m 59.54 -45.51 h 12.56 v 81.06 h -12.56 v -8.34 c -4.42 6.14 -11.28 9.85 -20.35 9.85 c -15.82 0 -28.96 -13.32 -28.96 -30.46 c 0 -17.25 13.14 -30.45 28.96 -30.45 c 9.07 0 15.93 3.7 20.35 9.72 z m -18.37 70.64 c 10.46 0 18.37 -7.76 18.37 -18.53 s -7.91 -18.53 -18.37 -18.53 c -10.47 0 -18.38 7.76 -18.38 18.53 s 7.91 18.53 18.38 18.53 z m 42.33 -18.53 c 0 -17.25 13.14 -30.45 30.7 -30.45 c 11.4 0 21.28 5.9 25.93 14.94 l -10.81 6.25 c -2.56 -5.44 -8.26 -8.92 -15.24 -8.92 c -10.23 0 -18.02 7.76 -18.02 18.18 s 7.79 18.18 18.02 18.18 c 6.98 0 12.68 -3.59 15.47 -8.91 l 10.82 6.13 c -4.89 9.15 -14.77 15.06 -26.17 15.06 c -17.56 0 -30.7 -13.32 -30.7 -30.46 z M 746.34 71.3 c 0 11.58 -10.12 17.84 -22.68 17.84 c -11.63 0 -20 -5.22 -23.72 -13.55 l 10.81 -6.26 c 1.87 5.22 6.52 8.34 12.91 8.34 c 5.59 0 9.89 -1.85 9.89 -6.48 c 0 -10.31 -31.28 -4.52 -31.28 -25.25 c 0 -10.88 9.42 -17.71 21.28 -17.71 c 9.53 0 17.44 4.4 21.51 12.04 l -10.58 5.91 c -2.09 -4.52 -6.16 -6.6 -10.93 -6.6 c -4.54 0 -8.49 1.96 -8.49 6.13 c 0 10.54 31.28 4.17 31.28 25.59 z m 53.62 0 c 0 11.58 -10.12 17.84 -22.68 17.84 c -11.63 0 -20.01 -5.22 -23.73 -13.55 l 10.82 -6.26 c 1.86 5.22 6.51 8.34 12.91 8.34 c 5.58 0 9.88 -1.85 9.88 -6.48 c 0 -10.31 -31.28 -4.52 -31.28 -25.25 c 0 -10.88 9.42 -17.71 21.28 -17.71 c 9.54 0 17.45 4.4 21.52 12.04 l -10.59 5.91 c -2.09 -4.52 -6.16 -6.6 -10.93 -6.6 c -4.53 0 -8.49 1.96 -8.49 6.13 c 0 10.54 31.29 4.17 31.29 25.59 z" stroke-linecap="round" />
</g>
		<g transform="matrix(3.12 0 0 3.12 -987.51 0)"  >
<path style="stroke: none; stroke-width: 1; stroke-dasharray: none; stroke-linecap: butt; stroke-dashoffset: 0; stroke-linejoin: miter; stroke-miterlimit: 4; fill: rgb(6,182,212); fill-rule: nonzero; opacity: 1;"  transform=" translate(-82.79, -49.54)" d="M 82.79 0.18 c -22.03 0 -35.81 10.97 -41.32 32.91 C 49.74 22.12 59.38 18 70.4 20.74 c 6.28 1.57 10.77 6.11 15.75 11.14 c 8.1 8.18 17.48 17.66 37.96 17.66 c 22.03 0 35.8 -10.97 41.31 -32.91 c -8.26 10.97 -17.9 15.08 -28.92 12.34 c -6.28 -1.56 -10.78 -6.11 -15.75 -11.13 C 112.65 9.65 103.27 0.18 82.79 0.18 z M 41.47 49.54 c -22.03 0 -35.8 10.97 -41.31 32.91 c 8.26 -10.97 17.9 -15.08 28.92 -12.34 c 6.29 1.56 10.78 6.11 15.75 11.13 c 8.1 8.19 17.48 17.66 37.96 17.66 c 22.04 0 35.81 -10.97 41.32 -32.91 c -8.27 10.97 -17.91 15.09 -28.92 12.35 c -6.29 -1.57 -10.78 -6.11 -15.76 -11.14 c -8.1 -8.18 -17.48 -17.66 -37.96 -17.66 z" stroke-linecap="round" />
</g>
</g>
</g>
</svg>